<svg viewBox="0 0 486 300" xmlns="http://www.w3.org/2000/svg" role="img" aria-label="Cafe Erdmann"><path fill="#364A2F" d="M 205 70 L 216 70 L 216 83 L 214 83 Q 213.25 76.75 209 74 Q 204.5 72.5 206 77 L 204 79 Q 205.5 85.5 202 87 L 202 105 Q 205.5 106.5 204 113 L 207 116 L 211 116 Q 213 111 218 112 L 216 120 Q 222.67 122.63 220 113 L 222 111 L 222 101 L 224 99 L 224 87 L 226 85 L 226 73 Q 222.5 71.5 225 70 Q 235.5 67.5 238 73 Q 236.5 79.5 240 81 L 240 91 L 242 93 L 242 103 L 244 105 L 244 115 Q 247.5 116.83 246 122 L 234 121 Q 237.5 119.5 236 113 L 234 111 L 234 101 Q 230.5 99.5 232 93 L 229 90 L 228 97 L 226 99 L 226 109 Q 222.5 110.5 224 117 L 228 121 L 227 122 Q 217.33 123.67 213 120 Q 211 124 203 122 L 198 120 L 198 117 L 194 111 Q 195.5 104.5 192 103 L 192 95 L 194 93 L 194 83 L 201 72 L 205 70 Z " /><path fill="#364A2F" d="M 248 70 L 270 70 L 270 81 L 268 81 Q 269 75 265 74 L 260 74 L 260 84 L 268 84 L 268 91 Q 266.5 93.5 265 90 Q 257.5 87.5 260 95 Q 264 97 262 105 L 260 107 L 260 118 Q 264.25 117 266 121 L 265 122 L 249 122 L 248 121 L 252 117 L 252 77 Q 247 75 248 70 Z " /><path fill="#364A2F" d="M 272 70 L 294 70 L 294 85 L 292 87 L 291 94 Q 289 89 284 90 L 284 117 L 285 118 L 292 118 L 294 108 Q 299.33 105.75 298 111 L 296 113 L 296 122 L 273 122 L 272 121 L 276 117 L 276 77 Q 271 75 272 70 Z M 285 74 L 284 84 L 292 84 L 290 76 L 285 74 Z " /><path fill="#364A2F" d="M 87 124 L 123 124 L 125 126 L 127 124 L 159 124 L 168 131 L 168 139 L 159 150 L 156 151 L 160 152 L 160 159 L 162 161 L 162 171 L 164 173 L 164 183 L 166 185 L 166 193 L 168 195 L 168 201 Q 171 202 170 207 L 174 211 L 174 216 L 159 216 Q 157 216.75 158 213 L 154 205 L 154 195 L 152 193 L 150 171 Q 146.5 169.5 148 163 L 145 160 L 144 161 L 144 209 Q 147.5 210.83 146 216 L 129 216 L 127 214 L 125 216 L 84 216 L 84 213 L 90 207 L 90 130 L 84 130 L 84 127 L 87 124 Z M 107 130 L 106 131 L 106 147 L 109 150 L 120 150 Q 122 142 118 137 L 113 132 Q 108 133 107 130 Z M 125 130 L 124 131 L 124 149 L 120 151 L 120 166 L 116 166 Q 118 161 114 159 L 114 156 L 106 156 L 106 207 L 107 208 L 120 208 L 122 203 L 122 199 L 124 197 L 124 193 Q 126 188 128 191 L 128 203 L 126 205 L 127 212 L 130 205 L 130 132 L 125 130 Z M 144 132 L 144 147 Q 143 149 147 148 Q 154 146 152 135 Q 150 131 144 132 Z " /><path fill="#364A2F" d="M 173 124 L 199 124 L 207 130 L 210 130 L 218 149 L 218 179 L 216 181 L 216 187 L 214 189 L 212 199 L 201 214 L 197 216 L 176 216 Q 174.5 210.83 178 209 L 178 131 L 172 125 L 173 124 Z M 192 132 L 192 207 Q 191 209 195 208 L 198 205 Q 197 200 200 199 Q 199 193 202 191 L 202 177 L 204 175 L 204 157 L 202 155 L 202 143 L 198 135 L 198 132 L 192 132 Z " /><path fill="#364A2F" d="M 217 124 L 235 124 Q 236.5 123.5 236 129 L 238 131 L 238 137 L 240 139 Q 238.5 145.5 242 147 L 242 155 L 244 157 L 245 166 L 246 159 L 248 157 L 248 149 L 250 147 L 250 137 Q 254 135 252 127 L 255 124 L 271 124 Q 273 123.25 272 127 L 268 133 L 268 209 Q 271 215 274 209 L 276 205 L 276 199 L 278 197 L 278 187 L 280 185 L 280 173 L 282 171 L 282 161 L 284 159 L 284 147 L 286 145 L 286 129 L 284 124 L 303 124 Q 305 123.25 304 127 L 306 129 Q 304 137 308 139 L 308 149 L 310 151 L 310 161 L 312 163 L 312 173 L 314 175 L 316 197 L 318 199 L 318 207 L 320 212 Q 324.25 213 326 209 L 326 133 L 323 130 L 316 129 L 321 124 L 341 124 L 344 127 L 344 131 L 346 133 L 346 137 L 353 154 L 354 143 Q 350 141 352 133 L 348 127 L 348 124 L 379 124 L 382 127 L 391 152 L 392 151 L 392 135 L 388 129 L 388 124 L 401 124 Q 403 123.25 402 127 L 398 131 L 398 213 L 397 214 L 392 207 L 390 197 L 386 191 L 386 187 L 384 185 L 382 175 L 378 169 L 378 165 L 376 163 L 376 159 L 373 152 L 372 153 L 372 207 Q 377.5 209.17 376 216 L 363 216 Q 361 216.75 362 213 L 366 207 L 366 135 L 364 130 Q 359.33 128.5 360 131 L 360 213 Q 360.67 215.5 356 214 L 356 211 L 352 205 L 348 189 L 344 183 L 344 179 L 342 177 L 342 173 L 336 161 L 336 157 L 333 150 L 332 151 L 332 207 L 338 213 L 335 216 L 325 216 L 323 214 L 321 216 L 301 216 Q 294.5 212.5 302 209 L 302 195 L 300 193 L 300 181 Q 296 179 298 171 L 291 156 L 288 159 Q 290 167 286 169 L 284 191 L 282 193 L 282 207 L 288 213 L 285 216 L 271 216 L 270 217 L 276 218 Q 278 225.63 273 228 L 269 230 L 261 230 L 254 221 L 254 163 L 253 162 L 252 169 L 250 171 L 250 179 L 248 181 L 248 191 L 246 193 L 246 203 L 244 205 L 244 214 Q 239.75 215 238 211 L 238 205 L 236 203 Q 237.5 196.5 234 195 L 234 187 L 232 185 L 232 179 L 230 177 L 229 170 L 228 171 L 228 209 Q 233 211 232 216 L 218 216 L 218 211 L 222 207 L 222 133 Q 220 128.5 214 130 Q 213 125.75 217 124 Z M 290 144 L 290 150 L 294 150 L 294 144 L 290 144 Z " /></svg>